<svg xmlns="http://www.w3.org/2000/svg" xmlns:xlink="http://www.w3.org/1999/xlink" width="500" zoomAndPan="magnify" viewBox="0 0 375 374.999991" height="500" preserveAspectRatio="xMidYMid meet" version="1.0"><defs><clipPath id="908c084988"><path d="M 77 74 L 276 74 L 276 370.5 L 77 370.5 Z M 77 74 " clip-rule="nonzero"/></clipPath></defs><path fill="#191919" d="M 369.972656 173.425781 C 366.257812 130.839844 347.769531 89.417969 317.484375 59.058594 C 316.902344 58.476562 316.246094 57.820312 315.664062 57.238281 C 270.238281 13.195312 200.714844 -4.421875 139.707031 12.6875 C 78.703125 29.792969 28.542969 80.972656 12.671875 142.269531 C 3.28125 178.378906 6.046875 217.253906 19.078125 252.050781 C 32.472656 288.011719 56.789062 318.515625 88.820312 339.628906 C 103.890625 349.601562 120.632812 357.097656 138.105469 361.757812 C 138.832031 345.015625 138.90625 327.90625 133.375 312.109375 C 126.601562 293.109375 112.699219 278.039062 100.90625 262.097656 C 88.746094 245.714844 79.355469 227.226562 73.898438 207.496094 C 68.363281 187.550781 67.054688 166.292969 71.496094 145.980469 C 77.464844 118.828125 93.261719 93.566406 117.066406 78.714844 C 137.667969 65.828125 162.566406 60.878906 186.589844 61.316406 C 215.855469 61.898438 245.777344 70.851562 267.324219 90.652344 C 288.875 110.457031 300.519531 142.125 292.148438 170.222656 C 290.546875 175.539062 288.289062 181.144531 289.746094 186.53125 C 290.691406 189.953125 293.023438 192.792969 295.351562 195.558594 C 302.050781 203.492188 308.746094 211.429688 315.445312 219.363281 C 317.554688 221.839844 319.8125 224.75 319.304688 228.027344 C 318.503906 233.558594 311.003906 234.941406 307.363281 239.238281 C 301.175781 246.589844 308.746094 258.019531 306.054688 267.265625 C 305.253906 269.957031 303.652344 272.359375 302.777344 274.980469 C 299.648438 284.300781 306.054688 295.585938 300.957031 303.957031 C 297.027344 310.289062 288.363281 311.601562 280.9375 310.800781 C 273.511719 309.925781 266.015625 307.597656 258.734375 309.269531 C 248.542969 311.601562 241.40625 321.355469 239.078125 331.546875 C 236.75 341.738281 238.277344 352.367188 239.878906 362.707031 C 300.667969 344.941406 350.386719 293.253906 365.605469 231.738281 C 370.335938 212.738281 371.71875 193.011719 369.972656 173.425781 Z M 369.972656 173.425781 " fill-opacity="1" fill-rule="nonzero"/><g clip-path="url(#908c084988)"><path fill="#191919" d="M 244.539062 178.59375 C 245.628906 182.015625 248.761719 184.492188 252.472656 184.492188 C 257.058594 184.492188 260.84375 180.78125 260.84375 176.121094 C 260.84375 174.15625 260.117188 172.40625 259.023438 170.953125 L 266.886719 151.734375 C 271.621094 150.347656 275.113281 146.054688 275.113281 140.886719 C 275.113281 134.625 270.019531 129.601562 263.828125 129.601562 C 263.394531 129.601562 263.027344 129.601562 262.664062 129.675781 L 239.296875 104.265625 C 239.660156 103.101562 239.878906 101.9375 239.878906 100.628906 C 239.878906 94.367188 234.78125 89.34375 228.59375 89.34375 C 225.171875 89.34375 222.042969 90.871094 220.003906 93.347656 L 183.023438 82.9375 C 181.859375 77.988281 177.34375 74.273438 172.03125 74.273438 C 165.914062 74.273438 160.964844 79.078125 160.746094 85.195312 L 121.289062 101.5 C 119.761719 99.828125 117.578125 98.734375 115.101562 98.734375 C 110.515625 98.734375 106.730469 102.449219 106.730469 107.105469 C 106.730469 109.363281 107.601562 111.402344 109.058594 112.929688 L 93.988281 137.828125 C 92.386719 136.953125 90.496094 136.445312 88.527344 136.445312 C 82.269531 136.445312 77.246094 141.539062 77.246094 147.730469 C 77.246094 153.988281 82.339844 159.011719 88.527344 159.011719 C 89.402344 159.011719 90.203125 158.941406 91.003906 158.722656 L 104.328125 189.007812 C 101.777344 191.042969 100.105469 194.246094 100.105469 197.816406 C 100.105469 204.074219 105.199219 209.097656 111.386719 209.097656 C 112.1875 209.097656 112.988281 209.027344 113.71875 208.878906 L 127.402344 235.742188 C 125.367188 237.78125 124.128906 240.621094 124.128906 243.75 C 124.128906 250.011719 129.222656 255.035156 135.410156 255.035156 C 136.359375 255.035156 137.230469 254.890625 138.03125 254.742188 L 155.503906 282.480469 C 152.519531 284.519531 150.628906 287.941406 150.628906 291.796875 C 150.628906 298.058594 155.722656 303.082031 161.910156 303.082031 C 162.128906 303.082031 162.347656 303.082031 162.566406 303.082031 L 166.714844 333.660156 L 165.988281 368.601562 C 165.988281 369.546875 166.714844 370.347656 167.734375 370.421875 C 168.679688 370.421875 169.480469 369.695312 169.554688 368.675781 L 170.28125 333.441406 L 166.058594 302.28125 C 170.28125 300.605469 173.269531 296.53125 173.269531 291.796875 C 173.269531 285.539062 168.171875 280.515625 161.984375 280.515625 C 160.890625 280.515625 159.800781 280.660156 158.78125 280.953125 L 141.382812 253.359375 C 144.511719 251.46875 146.625 248.046875 146.769531 244.113281 L 162.710938 241.710938 C 164.242188 243.75 166.644531 245.0625 169.335938 245.0625 C 173.921875 245.0625 177.707031 241.347656 177.707031 236.691406 C 177.707031 232.976562 175.304688 229.917969 171.957031 228.753906 L 168.972656 204.585938 C 174.796875 204.074219 179.308594 199.269531 179.308594 193.300781 C 179.308594 192.5 179.238281 191.773438 179.089844 191.042969 L 196.199219 178.960938 C 197.800781 179.761719 199.546875 180.269531 201.441406 180.269531 C 204.863281 180.269531 207.921875 178.742188 209.957031 176.339844 Z M 99.8125 146.128906 C 99.59375 144.453125 99.085938 142.925781 98.210938 141.539062 L 163.441406 92.765625 C 164.242188 93.710938 165.113281 94.441406 166.207031 95.09375 L 148.515625 133.023438 C 144.074219 133.386719 140.433594 136.300781 138.90625 140.304688 Z M 169.410156 96.476562 C 170.28125 96.695312 171.15625 96.769531 172.03125 96.769531 C 174.652344 96.769531 177.054688 95.894531 179.019531 94.367188 L 201.367188 122.6875 C 199.914062 124.578125 199.039062 126.980469 199.039062 129.601562 C 199.039062 130.621094 199.183594 131.640625 199.476562 132.660156 L 160.308594 141.03125 C 159.144531 137.246094 156.085938 134.40625 152.230469 133.386719 Z M 160.746094 144.453125 L 200.929688 135.863281 C 202.316406 137.972656 204.425781 139.503906 206.828125 140.304688 L 202.898438 157.628906 C 202.460938 157.554688 202.023438 157.554688 201.515625 157.554688 C 196.855469 157.554688 192.851562 160.324219 191.175781 164.328125 L 159.945312 148.382812 C 160.453125 147.21875 160.746094 145.835938 160.746094 144.453125 Z M 212.726562 167.3125 L 255.167969 148.164062 C 257.058594 150.421875 259.824219 151.949219 262.957031 152.167969 L 256.1875 168.695312 C 255.09375 168.113281 253.855469 167.820312 252.472656 167.820312 C 248.25 167.820312 244.757812 171.023438 244.246094 175.101562 L 212.070312 172.917969 C 212.507812 171.679688 212.796875 170.296875 212.796875 168.914062 C 212.871094 168.332031 212.796875 167.820312 212.726562 167.3125 Z M 258.878906 130.765625 C 255.09375 132.585938 252.546875 136.445312 252.546875 140.886719 C 252.546875 142.414062 252.835938 143.796875 253.347656 145.109375 L 211.707031 163.890625 C 210.539062 161.5625 208.648438 159.667969 206.320312 158.574219 L 210.324219 140.8125 C 216.582031 140.8125 221.605469 135.71875 221.605469 129.527344 C 221.605469 126.835938 220.660156 124.359375 219.132812 122.46875 L 225.828125 111.546875 C 226.703125 111.765625 227.648438 111.910156 228.59375 111.910156 C 232.234375 111.910156 235.4375 110.164062 237.550781 107.542969 Z M 222.554688 110.164062 L 216.4375 120.066406 C 214.691406 118.898438 212.578125 118.246094 210.324219 118.246094 C 207.921875 118.246094 205.734375 118.972656 203.917969 120.210938 L 181.421875 91.671875 C 182.441406 90.144531 183.09375 88.398438 183.242188 86.503906 L 218.113281 96.332031 C 217.601562 97.644531 217.3125 99.027344 217.3125 100.554688 C 217.3125 104.632812 219.421875 108.125 222.554688 110.164062 Z M 161.183594 88.6875 C 161.328125 89.050781 161.402344 89.417969 161.546875 89.78125 L 98.574219 136.882812 L 112.042969 114.679688 C 112.988281 115.042969 114.007812 115.261719 115.101562 115.261719 C 119.6875 115.261719 123.472656 111.546875 123.472656 106.886719 C 123.472656 106.015625 123.328125 105.140625 123.035156 104.339844 Z M 94.351562 157.265625 C 97.046875 155.664062 99.085938 152.96875 99.667969 149.765625 L 138.179688 144.015625 C 138.179688 144.089844 138.179688 144.234375 138.179688 144.308594 C 138.179688 146.929688 139.125 149.402344 140.652344 151.296875 L 115.683594 187.113281 C 114.371094 186.605469 112.988281 186.3125 111.535156 186.3125 C 110.152344 186.3125 108.765625 186.605469 107.53125 187.039062 Z M 146.332031 240.476562 C 144.949219 235.742188 140.652344 232.25 135.484375 232.25 C 133.664062 232.25 131.917969 232.683594 130.390625 233.484375 L 117.140625 207.425781 C 120.5625 205.457031 122.816406 201.820312 122.816406 197.597656 C 122.816406 194.101562 121.214844 190.972656 118.742188 188.859375 L 143.273438 153.625 C 144.367188 154.351562 145.605469 154.863281 146.914062 155.226562 L 162.128906 183.617188 C 159 185.65625 156.886719 189.152344 156.886719 193.15625 C 156.886719 198.46875 160.601562 202.984375 165.550781 204.148438 L 168.464844 228.171875 C 164.3125 228.679688 161.039062 232.175781 161.039062 236.472656 C 161.039062 237.054688 161.109375 237.636719 161.253906 238.21875 Z M 168.097656 181.871094 C 167.078125 181.871094 166.132812 182.015625 165.261719 182.234375 L 150.917969 155.445312 C 153.832031 155.082031 156.378906 153.550781 158.199219 151.441406 L 190.304688 167.820312 C 190.304688 168.183594 190.230469 168.476562 190.230469 168.839844 C 190.230469 171.824219 191.394531 174.589844 193.359375 176.628906 L 177.925781 187.550781 C 175.960938 184.199219 172.25 181.871094 168.097656 181.871094 Z M 168.097656 181.871094 " fill-opacity="1" fill-rule="nonzero"/></g></svg>