<svg xmlns="http://www.w3.org/2000/svg" xmlns:xlink="http://www.w3.org/1999/xlink" width="500" zoomAndPan="magnify" viewBox="0 0 375 374.999991" height="500" preserveAspectRatio="xMidYMid meet" version="1.0"><defs><clipPath id="06ac7c742b"><path d="M 42.59375 28.414062 L 338.019531 28.414062 L 338.019531 372 L 42.59375 372 Z M 42.59375 28.414062 " clip-rule="nonzero"/></clipPath><clipPath id="f90872c470"><path d="M 190.308594 28.414062 C 108.726562 28.414062 42.59375 105.328125 42.59375 200.207031 C 42.59375 295.085938 108.726562 372 190.308594 372 C 271.886719 372 338.019531 295.085938 338.019531 200.207031 C 338.019531 105.328125 271.886719 28.414062 190.308594 28.414062 Z M 190.308594 28.414062 " clip-rule="nonzero"/></clipPath><clipPath id="4759890973"><path d="M 0.59375 0.414062 L 296.019531 0.414062 L 296.019531 344 L 0.59375 344 Z M 0.59375 0.414062 " clip-rule="nonzero"/></clipPath><clipPath id="68bfcd92e5"><path d="M 148.308594 0.414062 C 66.726562 0.414062 0.59375 77.328125 0.59375 172.207031 C 0.59375 267.085938 66.726562 344 148.308594 344 C 229.886719 344 296.019531 267.085938 296.019531 172.207031 C 296.019531 77.328125 229.886719 0.414062 148.308594 0.414062 Z M 148.308594 0.414062 " clip-rule="nonzero"/></clipPath><clipPath id="b248fffc1e"><rect x="0" width="297" y="0" height="344"/></clipPath><clipPath id="286889585e"><path d="M 77 73 L 276 73 L 276 369.75 L 77 369.75 Z M 77 73 " clip-rule="nonzero"/></clipPath></defs><g clip-path="url(#06ac7c742b)"><g clip-path="url(#f90872c470)"><g transform="matrix(1, 0, 0, 1, 42, 28)"><g clip-path="url(#b248fffc1e)"><g clip-path="url(#4759890973)"><g clip-path="url(#68bfcd92e5)"><path fill="#ffffff" d="M 0.59375 0.414062 L 296.019531 0.414062 L 296.019531 344.304688 L 0.59375 344.304688 Z M 0.59375 0.414062 " fill-opacity="1" fill-rule="nonzero"/></g></g></g></g></g></g><path fill="#191919" d="M 369.972656 172.675781 C 366.257812 130.089844 347.769531 88.667969 317.484375 58.308594 C 316.902344 57.726562 316.246094 57.070312 315.664062 56.488281 C 270.238281 12.445312 200.714844 -5.171875 139.707031 11.9375 C 78.703125 29.042969 28.542969 80.222656 12.671875 141.519531 C 3.28125 177.628906 6.046875 216.503906 19.078125 251.300781 C 32.472656 287.261719 56.789062 317.765625 88.820312 338.878906 C 103.890625 348.851562 120.632812 356.347656 138.105469 361.007812 C 138.832031 344.265625 138.90625 327.15625 133.375 311.359375 C 126.601562 292.359375 112.699219 277.289062 100.90625 261.347656 C 88.746094 244.964844 79.355469 226.476562 73.898438 206.746094 C 68.363281 186.800781 67.054688 165.542969 71.496094 145.230469 C 77.464844 118.078125 93.261719 92.816406 117.066406 77.964844 C 137.667969 65.078125 162.566406 60.128906 186.589844 60.566406 C 215.855469 61.148438 245.777344 70.101562 267.324219 89.902344 C 288.875 109.707031 300.519531 141.375 292.148438 169.472656 C 290.546875 174.789062 288.289062 180.394531 289.746094 185.78125 C 290.691406 189.203125 293.023438 192.042969 295.351562 194.808594 C 302.050781 202.742188 308.746094 210.679688 315.445312 218.613281 C 317.554688 221.089844 319.8125 224 319.304688 227.277344 C 318.503906 232.808594 311.003906 234.191406 307.363281 238.488281 C 301.175781 245.839844 308.746094 257.269531 306.054688 266.515625 C 305.253906 269.207031 303.652344 271.609375 302.777344 274.230469 C 299.648438 283.550781 306.054688 294.835938 300.957031 303.207031 C 297.027344 309.539062 288.363281 310.851562 280.9375 310.050781 C 273.511719 309.175781 266.015625 306.847656 258.734375 308.519531 C 248.542969 310.851562 241.40625 320.605469 239.078125 330.796875 C 236.75 340.988281 238.277344 351.617188 239.878906 361.957031 C 300.667969 344.191406 350.386719 292.503906 365.605469 230.988281 C 370.335938 211.988281 371.71875 192.261719 369.972656 172.675781 Z M 369.972656 172.675781 " fill-opacity="1" fill-rule="nonzero"/><g clip-path="url(#286889585e)"><path fill="#191919" d="M 244.539062 177.84375 C 245.628906 181.265625 248.761719 183.742188 252.472656 183.742188 C 257.058594 183.742188 260.84375 180.03125 260.84375 175.371094 C 260.84375 173.40625 260.117188 171.65625 259.023438 170.203125 L 266.886719 150.984375 C 271.621094 149.597656 275.113281 145.304688 275.113281 140.136719 C 275.113281 133.875 270.019531 128.851562 263.828125 128.851562 C 263.394531 128.851562 263.027344 128.851562 262.664062 128.925781 L 239.296875 103.515625 C 239.660156 102.351562 239.878906 101.1875 239.878906 99.878906 C 239.878906 93.617188 234.78125 88.59375 228.59375 88.59375 C 225.171875 88.59375 222.042969 90.121094 220.003906 92.597656 L 183.023438 82.1875 C 181.859375 77.238281 177.34375 73.523438 172.03125 73.523438 C 165.914062 73.523438 160.964844 78.328125 160.746094 84.445312 L 121.289062 100.75 C 119.761719 99.078125 117.578125 97.984375 115.101562 97.984375 C 110.515625 97.984375 106.730469 101.699219 106.730469 106.355469 C 106.730469 108.613281 107.601562 110.652344 109.058594 112.179688 L 93.988281 137.078125 C 92.386719 136.203125 90.496094 135.695312 88.527344 135.695312 C 82.269531 135.695312 77.246094 140.789062 77.246094 146.980469 C 77.246094 153.238281 82.339844 158.261719 88.527344 158.261719 C 89.402344 158.261719 90.203125 158.191406 91.003906 157.972656 L 104.328125 188.257812 C 101.777344 190.292969 100.105469 193.496094 100.105469 197.066406 C 100.105469 203.324219 105.199219 208.347656 111.386719 208.347656 C 112.1875 208.347656 112.988281 208.277344 113.71875 208.128906 L 127.402344 234.992188 C 125.367188 237.03125 124.128906 239.871094 124.128906 243 C 124.128906 249.261719 129.222656 254.285156 135.410156 254.285156 C 136.359375 254.285156 137.230469 254.140625 138.03125 253.992188 L 155.503906 281.730469 C 152.519531 283.769531 150.628906 287.191406 150.628906 291.046875 C 150.628906 297.308594 155.722656 302.332031 161.910156 302.332031 C 162.128906 302.332031 162.347656 302.332031 162.566406 302.332031 L 166.714844 332.910156 L 165.988281 367.851562 C 165.988281 368.796875 166.714844 369.597656 167.734375 369.671875 C 168.679688 369.671875 169.480469 368.945312 169.554688 367.925781 L 170.28125 332.691406 L 166.058594 301.53125 C 170.28125 299.855469 173.269531 295.78125 173.269531 291.046875 C 173.269531 284.789062 168.171875 279.765625 161.984375 279.765625 C 160.890625 279.765625 159.800781 279.910156 158.78125 280.203125 L 141.382812 252.609375 C 144.511719 250.71875 146.625 247.296875 146.769531 243.363281 L 162.710938 240.960938 C 164.242188 243 166.644531 244.3125 169.335938 244.3125 C 173.921875 244.3125 177.707031 240.597656 177.707031 235.941406 C 177.707031 232.226562 175.304688 229.167969 171.957031 228.003906 L 168.972656 203.835938 C 174.796875 203.324219 179.308594 198.519531 179.308594 192.550781 C 179.308594 191.75 179.238281 191.023438 179.089844 190.292969 L 196.199219 178.210938 C 197.800781 179.011719 199.546875 179.519531 201.441406 179.519531 C 204.863281 179.519531 207.921875 177.992188 209.957031 175.589844 Z M 99.8125 145.378906 C 99.59375 143.703125 99.085938 142.175781 98.210938 140.789062 L 163.441406 92.015625 C 164.242188 92.960938 165.113281 93.691406 166.207031 94.34375 L 148.515625 132.273438 C 144.074219 132.636719 140.433594 135.550781 138.90625 139.554688 Z M 169.410156 95.726562 C 170.28125 95.945312 171.15625 96.019531 172.03125 96.019531 C 174.652344 96.019531 177.054688 95.144531 179.019531 93.617188 L 201.367188 121.9375 C 199.914062 123.828125 199.039062 126.230469 199.039062 128.851562 C 199.039062 129.871094 199.183594 130.890625 199.476562 131.910156 L 160.308594 140.28125 C 159.144531 136.496094 156.085938 133.65625 152.230469 132.636719 Z M 160.746094 143.703125 L 200.929688 135.113281 C 202.316406 137.222656 204.425781 138.753906 206.828125 139.554688 L 202.898438 156.878906 C 202.460938 156.804688 202.023438 156.804688 201.515625 156.804688 C 196.855469 156.804688 192.851562 159.574219 191.175781 163.578125 L 159.945312 147.632812 C 160.453125 146.46875 160.746094 145.085938 160.746094 143.703125 Z M 212.726562 166.5625 L 255.167969 147.414062 C 257.058594 149.671875 259.824219 151.199219 262.957031 151.417969 L 256.1875 167.945312 C 255.09375 167.363281 253.855469 167.070312 252.472656 167.070312 C 248.25 167.070312 244.757812 170.273438 244.246094 174.351562 L 212.070312 172.167969 C 212.507812 170.929688 212.796875 169.546875 212.796875 168.164062 C 212.871094 167.582031 212.796875 167.070312 212.726562 166.5625 Z M 258.878906 130.015625 C 255.09375 131.835938 252.546875 135.695312 252.546875 140.136719 C 252.546875 141.664062 252.835938 143.046875 253.347656 144.359375 L 211.707031 163.140625 C 210.539062 160.8125 208.648438 158.917969 206.320312 157.824219 L 210.324219 140.0625 C 216.582031 140.0625 221.605469 134.96875 221.605469 128.777344 C 221.605469 126.085938 220.660156 123.609375 219.132812 121.71875 L 225.828125 110.796875 C 226.703125 111.015625 227.648438 111.160156 228.59375 111.160156 C 232.234375 111.160156 235.4375 109.414062 237.550781 106.792969 Z M 222.554688 109.414062 L 216.4375 119.316406 C 214.691406 118.148438 212.578125 117.496094 210.324219 117.496094 C 207.921875 117.496094 205.734375 118.222656 203.917969 119.460938 L 181.421875 90.921875 C 182.441406 89.394531 183.09375 87.648438 183.242188 85.753906 L 218.113281 95.582031 C 217.601562 96.894531 217.3125 98.277344 217.3125 99.804688 C 217.3125 103.882812 219.421875 107.375 222.554688 109.414062 Z M 161.183594 87.9375 C 161.328125 88.300781 161.402344 88.667969 161.546875 89.03125 L 98.574219 136.132812 L 112.042969 113.929688 C 112.988281 114.292969 114.007812 114.511719 115.101562 114.511719 C 119.6875 114.511719 123.472656 110.796875 123.472656 106.136719 C 123.472656 105.265625 123.328125 104.390625 123.035156 103.589844 Z M 94.351562 156.515625 C 97.046875 154.914062 99.085938 152.21875 99.667969 149.015625 L 138.179688 143.265625 C 138.179688 143.339844 138.179688 143.484375 138.179688 143.558594 C 138.179688 146.179688 139.125 148.652344 140.652344 150.546875 L 115.683594 186.363281 C 114.371094 185.855469 112.988281 185.5625 111.535156 185.5625 C 110.152344 185.5625 108.765625 185.855469 107.53125 186.289062 Z M 146.332031 239.726562 C 144.949219 234.992188 140.652344 231.5 135.484375 231.5 C 133.664062 231.5 131.917969 231.933594 130.390625 232.734375 L 117.140625 206.675781 C 120.5625 204.707031 122.816406 201.070312 122.816406 196.847656 C 122.816406 193.351562 121.214844 190.222656 118.742188 188.109375 L 143.273438 152.875 C 144.367188 153.601562 145.605469 154.113281 146.914062 154.476562 L 162.128906 182.867188 C 159 184.90625 156.886719 188.402344 156.886719 192.40625 C 156.886719 197.71875 160.601562 202.234375 165.550781 203.398438 L 168.464844 227.421875 C 164.3125 227.929688 161.039062 231.425781 161.039062 235.722656 C 161.039062 236.304688 161.109375 236.886719 161.253906 237.46875 Z M 168.097656 181.121094 C 167.078125 181.121094 166.132812 181.265625 165.261719 181.484375 L 150.917969 154.695312 C 153.832031 154.332031 156.378906 152.800781 158.199219 150.691406 L 190.304688 167.070312 C 190.304688 167.433594 190.230469 167.726562 190.230469 168.089844 C 190.230469 171.074219 191.394531 173.839844 193.359375 175.878906 L 177.925781 186.800781 C 175.960938 183.449219 172.25 181.121094 168.097656 181.121094 Z M 168.097656 181.121094 " fill-opacity="1" fill-rule="nonzero"/></g></svg>