<svg xmlns="http://www.w3.org/2000/svg" xmlns:xlink="http://www.w3.org/1999/xlink" width="500" zoomAndPan="magnify" viewBox="0 0 375 374.999991" height="500" preserveAspectRatio="xMidYMid meet" version="1.0"><defs><clipPath id="7995b34e4f"><path d="M 81 79 L 272 79 L 272 363.65625 L 81 363.65625 Z M 81 79 " clip-rule="nonzero"/></clipPath></defs><path fill="#ffffff" d="M 362.761719 174.550781 C 359.195312 133.644531 341.4375 93.859375 312.347656 64.699219 C 311.789062 64.140625 311.160156 63.511719 310.601562 62.953125 C 266.96875 20.648438 200.191406 3.726562 141.59375 20.160156 C 83 36.589844 34.820312 85.746094 19.578125 144.621094 C 10.558594 179.304688 13.214844 216.644531 25.730469 250.066406 C 38.597656 284.609375 61.953125 313.90625 92.71875 334.183594 C 107.191406 343.765625 123.273438 350.964844 140.058594 355.441406 C 140.757812 339.359375 140.824219 322.925781 135.511719 307.753906 C 129.007812 289.503906 115.652344 275.03125 104.324219 259.714844 C 92.648438 243.984375 83.628906 226.222656 78.382812 207.273438 C 73.070312 188.113281 71.8125 167.699219 76.078125 148.1875 C 81.808594 122.105469 96.984375 97.84375 119.847656 83.578125 C 139.636719 71.203125 163.550781 66.449219 186.625 66.867188 C 214.734375 67.425781 243.472656 76.027344 264.171875 95.046875 C 284.867188 114.066406 296.054688 144.484375 288.015625 171.472656 C 286.476562 176.578125 284.308594 181.960938 285.707031 187.136719 C 286.617188 190.421875 288.855469 193.148438 291.089844 195.804688 C 297.523438 203.429688 303.957031 211.050781 310.390625 218.671875 C 312.417969 221.050781 314.585938 223.847656 314.097656 226.992188 C 313.328125 232.304688 306.125 233.636719 302.628906 237.761719 C 296.683594 244.824219 303.957031 255.800781 301.371094 264.679688 C 300.601562 267.269531 299.0625 269.574219 298.222656 272.09375 C 295.21875 281.042969 301.371094 291.882812 296.476562 299.921875 C 292.699219 306.007812 284.378906 307.265625 277.246094 306.496094 C 270.113281 305.65625 262.914062 303.417969 255.921875 305.027344 C 246.128906 307.265625 239.277344 316.632812 237.039062 326.421875 C 234.804688 336.214844 236.273438 346.421875 237.808594 356.351562 C 296.195312 339.289062 343.953125 289.644531 358.566406 230.558594 C 363.113281 212.308594 364.441406 193.359375 362.761719 174.550781 Z M 362.761719 174.550781 " fill-opacity="1" fill-rule="nonzero"/><g clip-path="url(#7995b34e4f)"><path fill="#ffffff" d="M 242.285156 179.515625 C 243.332031 182.800781 246.339844 185.179688 249.90625 185.179688 C 254.3125 185.179688 257.949219 181.613281 257.949219 177.136719 C 257.949219 175.25 257.25 173.570312 256.199219 172.171875 L 263.75 153.710938 C 268.296875 152.382812 271.652344 148.257812 271.652344 143.292969 C 271.652344 137.28125 266.757812 132.457031 260.816406 132.457031 C 260.394531 132.457031 260.046875 132.457031 259.695312 132.527344 L 237.25 108.121094 C 237.601562 107.003906 237.808594 105.886719 237.808594 104.625 C 237.808594 98.613281 232.914062 93.789062 226.972656 93.789062 C 223.683594 93.789062 220.679688 95.257812 218.71875 97.632812 L 183.199219 87.636719 C 182.082031 82.878906 177.746094 79.3125 172.640625 79.3125 C 166.765625 79.3125 162.011719 83.929688 161.804688 89.800781 L 123.90625 105.464844 C 122.4375 103.855469 120.339844 102.808594 117.960938 102.808594 C 113.554688 102.808594 109.917969 106.375 109.917969 110.847656 C 109.917969 113.015625 110.757812 114.976562 112.15625 116.445312 L 97.683594 140.355469 C 96.144531 139.519531 94.328125 139.027344 92.4375 139.027344 C 86.425781 139.027344 81.601562 143.921875 81.601562 149.867188 C 81.601562 155.878906 86.496094 160.703125 92.4375 160.703125 C 93.277344 160.703125 94.046875 160.636719 94.816406 160.425781 L 107.613281 189.511719 C 105.164062 191.472656 103.558594 194.546875 103.558594 197.972656 C 103.558594 203.988281 108.453125 208.8125 114.394531 208.8125 C 115.164062 208.8125 115.933594 208.742188 116.632812 208.601562 L 129.777344 234.40625 C 127.820312 236.363281 126.632812 239.089844 126.632812 242.097656 C 126.632812 248.109375 131.527344 252.933594 137.46875 252.933594 C 138.378906 252.933594 139.21875 252.792969 139.988281 252.65625 L 156.769531 279.296875 C 153.902344 281.253906 152.082031 284.539062 152.082031 288.246094 C 152.082031 294.257812 156.976562 299.082031 162.921875 299.082031 C 163.132812 299.082031 163.339844 299.082031 163.550781 299.082031 L 167.535156 328.453125 L 166.835938 362.015625 C 166.835938 362.921875 167.535156 363.691406 168.515625 363.761719 C 169.425781 363.761719 170.195312 363.0625 170.265625 362.085938 L 170.964844 328.242188 L 166.90625 298.3125 C 170.964844 296.707031 173.828125 292.789062 173.828125 288.246094 C 173.828125 282.230469 168.933594 277.40625 162.992188 277.40625 C 161.941406 277.40625 160.894531 277.546875 159.914062 277.828125 L 143.203125 251.324219 C 146.210938 249.507812 148.238281 246.222656 148.378906 242.445312 L 163.691406 240.136719 C 165.160156 242.097656 167.464844 243.355469 170.054688 243.355469 C 174.460938 243.355469 178.09375 239.789062 178.09375 235.3125 C 178.09375 231.746094 175.789062 228.808594 172.570312 227.691406 L 169.703125 204.476562 C 175.296875 203.988281 179.632812 199.371094 179.632812 193.640625 C 179.632812 192.871094 179.5625 192.171875 179.421875 191.472656 L 195.855469 179.863281 C 197.394531 180.632812 199.070312 181.121094 200.890625 181.121094 C 204.175781 181.121094 207.113281 179.652344 209.070312 177.347656 Z M 103.277344 148.328125 C 103.066406 146.71875 102.578125 145.25 101.738281 143.921875 L 164.390625 97.074219 C 165.160156 97.984375 166 98.683594 167.046875 99.3125 L 150.054688 135.742188 C 145.789062 136.09375 142.292969 138.890625 140.824219 142.734375 Z M 170.125 100.640625 C 170.964844 100.851562 171.800781 100.921875 172.640625 100.921875 C 175.160156 100.921875 177.464844 100.082031 179.355469 98.613281 L 200.820312 125.8125 C 199.421875 127.632812 198.582031 129.9375 198.582031 132.457031 C 198.582031 133.433594 198.722656 134.414062 199.003906 135.394531 L 161.382812 143.433594 C 160.265625 139.796875 157.328125 137.070312 153.621094 136.09375 Z M 161.804688 146.71875 L 200.402344 138.46875 C 201.730469 140.496094 203.757812 141.964844 206.066406 142.734375 L 202.289062 159.375 C 201.871094 159.304688 201.449219 159.304688 200.960938 159.304688 C 196.484375 159.304688 192.640625 161.964844 191.03125 165.808594 L 161.035156 150.496094 C 161.523438 149.378906 161.804688 148.046875 161.804688 146.71875 Z M 211.726562 168.675781 L 252.492188 150.285156 C 254.3125 152.453125 256.96875 153.921875 259.976562 154.132812 L 253.472656 170.003906 C 252.425781 169.445312 251.234375 169.164062 249.90625 169.164062 C 245.851562 169.164062 242.496094 172.242188 242.003906 176.15625 L 211.097656 174.058594 C 211.519531 172.871094 211.796875 171.542969 211.796875 170.214844 C 211.867188 169.65625 211.796875 169.164062 211.726562 168.675781 Z M 256.058594 133.574219 C 252.425781 135.324219 249.976562 139.027344 249.976562 143.292969 C 249.976562 144.761719 250.257812 146.089844 250.746094 147.347656 L 210.75 165.390625 C 209.628906 163.152344 207.8125 161.335938 205.574219 160.285156 L 209.421875 143.222656 C 215.433594 143.222656 220.257812 138.328125 220.257812 132.386719 C 220.257812 129.796875 219.351562 127.421875 217.882812 125.601562 L 224.316406 115.113281 C 225.152344 115.324219 226.0625 115.464844 226.972656 115.464844 C 230.46875 115.464844 233.542969 113.785156 235.574219 111.269531 Z M 221.167969 113.785156 L 215.292969 123.296875 C 213.617188 122.175781 211.589844 121.546875 209.421875 121.546875 C 207.113281 121.546875 205.015625 122.246094 203.269531 123.4375 L 181.660156 96.027344 C 182.640625 94.558594 183.269531 92.878906 183.410156 91.0625 L 216.902344 100.5 C 216.414062 101.757812 216.132812 103.089844 216.132812 104.554688 C 216.132812 108.472656 218.160156 111.828125 221.167969 113.785156 Z M 162.222656 93.160156 C 162.363281 93.507812 162.433594 93.859375 162.570312 94.207031 L 102.089844 139.449219 L 115.023438 118.121094 C 115.933594 118.472656 116.914062 118.679688 117.960938 118.679688 C 122.367188 118.679688 126.003906 115.113281 126.003906 110.640625 C 126.003906 109.800781 125.863281 108.960938 125.582031 108.191406 Z M 98.03125 159.027344 C 100.621094 157.488281 102.578125 154.902344 103.136719 151.824219 L 140.125 146.300781 C 140.125 146.371094 140.125 146.511719 140.125 146.582031 C 140.125 149.097656 141.035156 151.476562 142.503906 153.292969 L 118.519531 187.695312 C 117.261719 187.207031 115.933594 186.925781 114.535156 186.925781 C 113.207031 186.925781 111.878906 187.207031 110.6875 187.625 Z M 147.957031 238.949219 C 146.628906 234.40625 142.503906 231.046875 137.539062 231.046875 C 135.792969 231.046875 134.113281 231.46875 132.644531 232.238281 L 119.917969 207.203125 C 123.207031 205.316406 125.371094 201.820312 125.371094 197.765625 C 125.371094 194.40625 123.835938 191.402344 121.457031 189.375 L 145.019531 155.53125 C 146.070312 156.230469 147.257812 156.71875 148.515625 157.070312 L 163.132812 184.339844 C 160.125 186.296875 158.097656 189.652344 158.097656 193.5 C 158.097656 198.601562 161.664062 202.9375 166.417969 204.058594 L 169.214844 227.132812 C 165.230469 227.621094 162.082031 230.976562 162.082031 235.105469 C 162.082031 235.664062 162.152344 236.222656 162.292969 236.78125 Z M 168.867188 182.660156 C 167.886719 182.660156 166.976562 182.800781 166.136719 183.011719 L 152.363281 157.277344 C 155.160156 156.929688 157.609375 155.460938 159.355469 153.433594 L 190.191406 169.164062 C 190.191406 169.515625 190.121094 169.796875 190.121094 170.144531 C 190.121094 173.011719 191.242188 175.667969 193.128906 177.625 L 178.304688 188.113281 C 176.417969 184.898438 172.851562 182.660156 168.867188 182.660156 Z M 168.867188 182.660156 " fill-opacity="1" fill-rule="nonzero"/></g></svg>